<svg xmlns="http://www.w3.org/2000/svg" width="3000" height="3000" viewBox="0 0 3000 3000" role="img" aria-labelledby="title desc">
  <title id="title">Two Coffees and a Beer — Superteam Poland podcast cover</title>
  <desc id="desc">Bold square podcast cover with two coffee cups, a beer glass, Solana-inspired gradient accents, waveform ring, and title typography.</desc>
  <defs>
    <radialGradient id="bgGlow" cx="50%" cy="38%" r="72%">
      <stop offset="0" stop-color="#1c2a4f"/>
      <stop offset="0.42" stop-color="#101728"/>
      <stop offset="1" stop-color="#06070d"/>
    </radialGradient>
    <linearGradient id="solana" x1="0%" y1="0%" x2="100%" y2="100%">
      <stop offset="0" stop-color="#14f195"/>
      <stop offset="0.48" stop-color="#80ecff"/>
      <stop offset="1" stop-color="#9945ff"/>
    </linearGradient>
    <linearGradient id="beer" x1="0" y1="0" x2="0" y2="1">
      <stop offset="0" stop-color="#ffe8a1"/>
      <stop offset="0.35" stop-color="#f5ad31"/>
      <stop offset="1" stop-color="#9a4f10"/>
    </linearGradient>
    <linearGradient id="coffee" x1="0" y1="0" x2="1" y2="1">
      <stop offset="0" stop-color="#f0d0a8"/>
      <stop offset="1" stop-color="#7a3e22"/>
    </linearGradient>
    <filter id="softShadow" x="-30%" y="-30%" width="160%" height="160%">
      <feDropShadow dx="0" dy="34" stdDeviation="34" flood-color="#000" flood-opacity="0.48"/>
    </filter>
    <filter id="glow" x="-60%" y="-60%" width="220%" height="220%">
      <feGaussianBlur stdDeviation="18" result="blur"/>
      <feMerge><feMergeNode in="blur"/><feMergeNode in="SourceGraphic"/></feMerge>
    </filter>
    <pattern id="grain" width="180" height="180" patternUnits="userSpaceOnUse">
      <circle cx="22" cy="37" r="2" fill="#fff" opacity="0.045"/>
      <circle cx="151" cy="89" r="1.5" fill="#fff" opacity="0.035"/>
      <circle cx="80" cy="140" r="1" fill="#14f195" opacity="0.05"/>
    </pattern>
  </defs>

  <rect width="3000" height="3000" fill="url(#bgGlow)"/>
  <rect width="3000" height="3000" fill="url(#grain)"/>

  <g opacity="0.85" filter="url(#glow)">
    <circle cx="1500" cy="1470" r="950" fill="none" stroke="url(#solana)" stroke-width="12" stroke-opacity="0.38"/>
    <circle cx="1500" cy="1470" r="790" fill="none" stroke="#ffffff" stroke-width="2" stroke-opacity="0.16"/>
    <circle cx="1500" cy="1470" r="1110" fill="none" stroke="#14f195" stroke-width="3" stroke-dasharray="18 34" stroke-opacity="0.22"/>
  </g>

  <g transform="translate(1500 1470)" opacity="0.62">
    <g stroke="url(#solana)" stroke-width="10" stroke-linecap="round">
      <path d="M-1090 0 v-58 M-1040 0 v72 M-990 0 v-118 M-940 0 v96 M-890 0 v-42 M-840 0 v130 M-790 0 v-90 M-740 0 v54 M-690 0 v-146 M-640 0 v74 M-590 0 v-38 M590 0 v86 M640 0 v-120 M690 0 v48 M740 0 v-76 M790 0 v144 M840 0 v-64 M890 0 v38 M940 0 v116 M990 0 v-72 M1040 0 v54 M1090 0 v-102"/>
    </g>
  </g>

  <g filter="url(#softShadow)">
    <ellipse cx="1500" cy="1965" rx="820" ry="145" fill="#02040a" opacity="0.55"/>
    <path d="M740 1850 C970 1745 2030 1745 2260 1850 L2135 2050 C1880 2145 1120 2145 865 2050 Z" fill="#10192b" stroke="#263653" stroke-width="8"/>
    <path d="M895 1864 C1168 1789 1832 1789 2105 1864" fill="none" stroke="url(#solana)" stroke-width="11" stroke-linecap="round" opacity="0.72"/>
  </g>

  <g filter="url(#softShadow)">
    <g transform="translate(785 1355)">
      <ellipse cx="310" cy="67" rx="215" ry="64" fill="#fff1d8"/>
      <path d="M115 60 C126 330 171 514 310 514 C449 514 494 330 505 60 Z" fill="#f4e7d5" stroke="#2b3143" stroke-width="10"/>
      <ellipse cx="310" cy="72" rx="188" ry="45" fill="url(#coffee)"/>
      <path d="M505 164 C660 146 668 402 504 372" fill="none" stroke="#f4e7d5" stroke-width="58" stroke-linecap="round"/>
      <path d="M505 164 C660 146 668 402 504 372" fill="none" stroke="#2b3143" stroke-width="10" stroke-linecap="round" opacity="0.8"/>
      <path d="M236 -155 C196 -96 272 -54 226 12 M342 -178 C298 -112 384 -70 328 -8 M440 -145 C402 -92 466 -54 426 6" fill="none" stroke="#f4e7d5" stroke-width="28" stroke-linecap="round" opacity="0.75"/>
    </g>
    <g transform="translate(1210 1288)">
      <ellipse cx="250" cy="62" rx="180" ry="54" fill="#fff1d8"/>
      <path d="M86 57 C98 292 135 452 250 452 C365 452 402 292 414 57 Z" fill="#efe0ce" stroke="#2b3143" stroke-width="9"/>
      <ellipse cx="250" cy="65" rx="154" ry="37" fill="#3b1f16"/>
      <path d="M414 146 C540 132 548 344 414 320" fill="none" stroke="#efe0ce" stroke-width="48" stroke-linecap="round"/>
      <path d="M414 146 C540 132 548 344 414 320" fill="none" stroke="#2b3143" stroke-width="9" stroke-linecap="round" opacity="0.8"/>
      <path d="M205 -125 C172 -76 233 -42 194 6 M296 -146 C260 -92 334 -58 286 -8" fill="none" stroke="#efe0ce" stroke-width="23" stroke-linecap="round" opacity="0.72"/>
    </g>
    <g transform="translate(1770 1138)">
      <path d="M110 88 H498 L456 760 C450 860 386 915 304 915 C222 915 158 860 152 760 Z" fill="rgba(255,255,255,0.14)" stroke="#dfeeff" stroke-opacity="0.78" stroke-width="11"/>
      <path d="M142 244 H466 L430 742 C424 804 380 841 304 841 C228 841 184 804 178 742 Z" fill="url(#beer)" opacity="0.96"/>
      <path d="M128 94 H480 C492 156 467 226 406 249 C336 276 247 216 183 247 C118 220 96 151 128 94 Z" fill="#fff4c8"/>
      <circle cx="236" cy="390" r="18" fill="#ffe8a1" opacity="0.65"/>
      <circle cx="348" cy="486" r="13" fill="#ffe8a1" opacity="0.58"/>
      <circle cx="290" cy="626" r="16" fill="#ffe8a1" opacity="0.5"/>
      <path d="M498 235 C698 230 708 588 465 576" fill="none" stroke="#dfeeff" stroke-width="56" stroke-linecap="round" stroke-opacity="0.74"/>
      <path d="M498 235 C698 230 708 588 465 576" fill="none" stroke="#2b3143" stroke-width="10" stroke-linecap="round" opacity="0.75"/>
    </g>
  </g>

  <g text-anchor="middle">
    <text x="1500" y="535" font-family="Inter, Avenir Next, Montserrat, Arial, sans-serif" font-size="108" font-weight="800" letter-spacing="18" fill="#c9fff0" opacity="0.94">SUPERTEAM POLAND</text>
    <path d="M880 616 H2120" stroke="url(#solana)" stroke-width="10" stroke-linecap="round" opacity="0.95"/>
    <text x="1500" y="860" font-family="Georgia, 'Times New Roman', serif" font-size="220" font-weight="800" fill="#ffffff" letter-spacing="-6">Two Coffees</text>
    <text x="1500" y="1096" font-family="Georgia, 'Times New Roman', serif" font-size="196" font-weight="800" fill="#ffffff" letter-spacing="-4">and a Beer</text>
    <text x="1500" y="2520" font-family="Inter, Avenir Next, Montserrat, Arial, sans-serif" font-size="68" font-weight="700" fill="#9fb8d7" letter-spacing="8">FOUNDER TALKS • SOLANA ECOSYSTEM • POLAND</text>
  </g>

  <g opacity="0.78">
    <path d="M580 2380 C850 2260 1040 2280 1250 2370 S1640 2494 1910 2370 S2320 2260 2420 2375" fill="none" stroke="url(#solana)" stroke-width="13" stroke-linecap="round"/>
    <path d="M610 2425 C885 2305 1035 2350 1250 2444 S1655 2538 1912 2436 S2260 2355 2388 2438" fill="none" stroke="#ffffff" stroke-width="5" stroke-opacity="0.32" stroke-linecap="round"/>
  </g>
</svg>
